<svg xmlns="http://www.w3.org/2000/svg" width="1200" height="1200" viewBox="0 0 1200 1200" fill="none">
  <rect width="1200" height="1200" fill="#F8F9FB"/>
  <g opacity="0.35" fill="#D9D9D9">
    <path d="M98 120c48-60 140-42 192-12s86 102 46 150-114 58-170 28-116-106-68-166z"/>
    <path d="M784 82c36-28 90-34 134-18 44 16 78 54 84 96 6 44-20 90-60 112-40 20-94 18-132-8-40-26-64-78-58-126 2-16 10-36 32-56z"/>
    <path d="M482 324c28-24 68-32 102-24 34 8 62 32 76 62 12 30 10 68-10 96-20 26-56 44-90 42-34 0-70-18-94-46-26-30-38-70-26-104 6-18 20-34 42-50z"/>
    <path d="M196 552c22-18 52-24 78-18 28 6 52 24 64 46 14 24 12 52-4 76s-46 40-74 38c-28 0-58-16-76-40-20-26-28-58-18-84 4-10 12-18 30-18z"/>
    <path d="M884 418c24-32 62-42 98-34 38 8 70 34 84 66 16 32 14 72-6 104-20 30-56 52-94 50-38 0-78-20-102-54-26-34-36-80-20-118 6-16 20-28 40-38z"/>
    <path d="M1036 762c24-14 54-16 82-6 28 10 50 30 60 54 10 24 8 52-6 76-16 22-42 38-70 38-28 2-58-12-78-34-18-22-26-52-18-80 6-18 16-34 30-48z"/>
    <path d="M384 846c24-14 52-16 78-6 24 10 44 30 52 54 10 24 8 52-6 74-14 24-38 40-64 42-26 2-54-10-74-30-20-18-30-46-26-72 2-22 16-44 40-62z"/>
  </g>
  <g opacity="0.18" fill="#BDBDBD">
    <path d="M612 614c26-16 58-20 88-10 30 10 54 34 64 62 10 30 4 64-18 90s-56 40-90 38c-34-4-68-24-88-54-20-28-26-64-12-94 8-14 22-26 56-32z"/>
    <path d="M148 896c18-10 38-14 58-8 20 6 36 18 44 36s6 38-6 54c-12 18-32 28-52 28s-42-10-56-26c-14-16-20-36-14-54 4-12 12-22 26-30z"/>
    <path d="M900 1006c20-10 46-12 68-2 24 8 42 28 50 50 8 24 4 50-10 70-14 18-38 30-62 28-24 0-50-14-66-36-16-20-22-46-14-70 6-16 18-30 34-40z"/>
    <path d="M520 112c18-12 42-14 62-6 20 6 36 20 44 38 8 18 6 40-6 56-14 16-34 26-54 24-20-2-42-16-54-32-12-18-18-40-10-58 4-10 10-18 18-22z"/>
  </g>
</svg>
